<?xml version="1.0" encoding="UTF-8"?>
<svg version="1.1" xmlns="http://www.w3.org/2000/svg" width="200" height="200">
<path d="M0 0 C3 0.25 3 0.25 5 2.25 C5.25 5.25 5.25 5.25 5 8.25 C4.34 8.91 3.68 9.57 3 10.25 C2.62864085 12.77037964 2.62864085 12.77037964 2.5859375 15.6953125 C2.54726562 16.77167969 2.50859375 17.84804688 2.46875 18.95703125 C2.4378125 20.08496094 2.406875 21.21289062 2.375 22.375 C2.33632812 23.51066406 2.29765625 24.64632812 2.2578125 25.81640625 C2.16332399 28.62743956 2.07776459 31.43846233 2 34.25 C2.78503906 34.23839844 3.57007812 34.22679687 4.37890625 34.21484375 C5.42949219 34.20582031 6.48007813 34.19679687 7.5625 34.1875 C8.66182861 34.17710693 9.76115723 34.16671387 10.89379883 34.15600586 C14 34.25 14 34.25 17.76171875 35.19140625 C21.57474661 35.26039952 22.11692966 34.71413533 24.89453125 32.27734375 C26.22149652 30.93447081 27.52704652 29.5701619 28.8125 28.1875 C29.47958984 27.51783203 30.14667969 26.84816406 30.83398438 26.15820312 C34.51961704 22.3386827 36.54334875 19.43691159 38 14.25 C41 12.25 41 12.25 43.5625 12.4375 C46 13.25 46 13.25 48 16.25 C47.6758631 19.57240324 47.39223697 20.85776303 45 23.25 C44.08992188 23.50523438 43.17984375 23.76046875 42.2421875 24.0234375 C38.29400627 25.51708679 35.94375533 27.85709348 33.125 30.875 C32.62742187 31.390625 32.12984375 31.90625 31.6171875 32.4375 C30.4020666 33.69935632 29.19968875 34.97346286 28 36.25 C28.71542969 36.52972656 29.43085938 36.80945312 30.16796875 37.09765625 C37.20478519 39.92876869 43.6482217 43.16158085 50.1875 46.9921875 C52.80914032 48.41213674 52.80914032 48.41213674 55.1171875 48.17578125 C60.22841647 45.6625836 64.27515307 40.9833296 66.4375 35.8125 C66.623125 34.966875 66.80875 34.12125 67 33.25 C68 32.25 68 32.25 70.9375 32.0625 C74 32.25 74 32.25 76 34.25 C76.25 37.25 76.25 37.25 76 40.25 C74 42.25 74 42.25 71.375 42.875 C66.49066036 44.86491615 63.51938526 48.40904654 60 52.25 C60.66 52.91 61.32 53.57 62 54.25 C62.45890625 54.71535156 62.9178125 55.18070313 63.390625 55.66015625 C64.50068512 56.75674477 65.63831779 57.82587366 66.796875 58.87109375 C71.20290424 62.96870094 74.69424231 67.37632152 78 72.375 C78.39799805 72.96079834 78.79599609 73.54659668 79.20605469 74.15014648 C81.66676234 78.00355385 82.68017177 80.7032662 82 85.25 C77.31119914 95.44173434 68.82837603 104.45894151 60 111.25 C60.93590504 112.3555189 61.87379858 113.45935453 62.8125 114.5625 C63.33457031 115.17738281 63.85664063 115.79226562 64.39453125 116.42578125 C67.78848535 120.28217192 69.98598094 121.7239942 75 123.25 C76 124.25 76 124.25 76.1875 127.1875 C76 130.25 76 130.25 74 132.25 C71 132.5 71 132.5 68 132.25 C66 130.25 66 130.25 65.375 127.625 C63.4412873 122.87861428 60.21962301 119.187813 56 116.25 C53.15284824 116.70396846 50.72283063 117.74923003 48.13671875 118.9921875 C47.41419922 119.33636719 46.69167969 119.68054688 45.94726562 120.03515625 C45.20154297 120.39480469 44.45582031 120.75445312 43.6875 121.125 C38.49955929 123.61193207 33.30482693 126.02155223 28 128.25 C29.86279519 130.22130753 31.73876274 132.17633408 33.625 134.125 C34.14707031 134.68058594 34.66914063 135.23617187 35.20703125 135.80859375 C38.63337745 139.3195411 41.21453678 140.83767131 46 142.25 C48 145.25 48 145.25 47.8125 147.8125 C47 150.25 47 150.25 44 152.25 C40.67759676 151.9258631 39.39223697 151.64223697 37 149.25 C36.76667969 148.37214844 36.53335938 147.49429688 36.29296875 146.58984375 C34.52709825 142.0284562 31.7267985 139.24100994 28.3125 135.8125 C27.71244141 135.16345703 27.11238281 134.51441406 26.49414062 133.84570312 C24.7398298 132.06878034 23.11716611 130.57486992 21 129.25 C17.66307181 129.23328135 17.66307181 129.23328135 14 130.25 C11.85500582 130.31351919 9.70835 130.33153995 7.5625 130.3125 C6.51191406 130.30347656 5.46132812 130.29445312 4.37890625 130.28515625 C3.59386719 130.27355469 2.80882813 130.26195312 2 130.25 C2.10950024 134.2089232 2.24021668 138.16686326 2.375 142.125 C2.4059375 143.25292969 2.436875 144.38085938 2.46875 145.54296875 C2.50742188 146.61933594 2.54609375 147.69570312 2.5859375 148.8046875 C2.6173584 149.79968262 2.6487793 150.79467773 2.68115234 151.81982422 C2.77247083 154.42854517 2.77247083 154.42854517 5 156.25 C5.25 159.25 5.25 159.25 5 162.25 C3 164.25 3 164.25 0 164.5 C-3 164.25 -3 164.25 -5 162.25 C-5.25 159.25 -5.25 159.25 -5 156.25 C-4.34 155.59 -3.68 154.93 -3 154.25 C-2.62864085 151.72962036 -2.62864085 151.72962036 -2.5859375 148.8046875 C-2.54726562 147.72832031 -2.50859375 146.65195313 -2.46875 145.54296875 C-2.4378125 144.41503906 -2.406875 143.28710938 -2.375 142.125 C-2.33632812 140.98933594 -2.29765625 139.85367188 -2.2578125 138.68359375 C-2.16332399 135.87256044 -2.07776459 133.06153767 -2 130.25 C-3.17755859 130.26740234 -3.17755859 130.26740234 -4.37890625 130.28515625 C-5.95478516 130.29869141 -5.95478516 130.29869141 -7.5625 130.3125 C-9.21149292 130.3280896 -9.21149292 130.3280896 -10.89379883 130.34399414 C-14 130.25 -14 130.25 -17.76171875 129.30859375 C-21.57474661 129.23960048 -22.11692966 129.78586467 -24.89453125 132.22265625 C-26.22149652 133.56552919 -27.52704652 134.9298381 -28.8125 136.3125 C-29.47958984 136.98216797 -30.14667969 137.65183594 -30.83398438 138.34179688 C-34.51961704 142.1613173 -36.54334875 145.06308841 -38 150.25 C-41 152.25 -41 152.25 -43.5625 152.0625 C-46 151.25 -46 151.25 -48 148.25 C-47.6758631 144.92759676 -47.39223697 143.64223697 -45 141.25 C-44.08992188 140.99476563 -43.17984375 140.73953125 -42.2421875 140.4765625 C-38.29400627 138.98291321 -35.94375533 136.64290652 -33.125 133.625 C-32.62742188 133.109375 -32.12984375 132.59375 -31.6171875 132.0625 C-30.4020666 130.80064368 -29.19968875 129.52653714 -28 128.25 C-29.07314453 127.83041016 -29.07314453 127.83041016 -30.16796875 127.40234375 C-37.20478519 124.57123131 -43.6482217 121.33841915 -50.1875 117.5078125 C-52.80914032 116.08786326 -52.80914032 116.08786326 -55.1171875 116.32421875 C-60.22841647 118.8374164 -64.27515307 123.5166704 -66.4375 128.6875 C-66.623125 129.533125 -66.80875 130.37875 -67 131.25 C-68 132.25 -68 132.25 -70.9375 132.4375 C-74 132.25 -74 132.25 -76 130.25 C-76.25 127.25 -76.25 127.25 -76 124.25 C-74 122.25 -74 122.25 -71.375 121.625 C-66.49066036 119.63508385 -63.51938526 116.09095346 -60 112.25 C-60.66 111.59 -61.32 110.93 -62 110.25 C-62.45890625 109.78464844 -62.9178125 109.31929688 -63.390625 108.83984375 C-64.50068512 107.74325523 -65.63831779 106.67412634 -66.796875 105.62890625 C-71.20290424 101.53129906 -74.69424231 97.12367848 -78 92.125 C-78.39799805 91.53920166 -78.79599609 90.95340332 -79.20605469 90.34985352 C-81.66676234 86.49644615 -82.68017177 83.7967338 -82 79.25 C-77.31119914 69.05826566 -68.82837603 60.04105849 -60 53.25 C-60.93590504 52.1444811 -61.87379858 51.04064547 -62.8125 49.9375 C-63.33457031 49.32261719 -63.85664062 48.70773438 -64.39453125 48.07421875 C-67.78848535 44.21782808 -69.98598094 42.7760058 -75 41.25 C-76 40.25 -76 40.25 -76.1875 37.3125 C-76 34.25 -76 34.25 -74 32.25 C-71 32 -71 32 -68 32.25 C-66 34.25 -66 34.25 -65.375 36.875 C-63.4412873 41.62138572 -60.21962301 45.312187 -56 48.25 C-53.15284824 47.79603154 -50.72283063 46.75076997 -48.13671875 45.5078125 C-47.41419922 45.16363281 -46.69167969 44.81945313 -45.94726562 44.46484375 C-45.20154297 44.10519531 -44.45582031 43.74554688 -43.6875 43.375 C-38.49955929 40.88806793 -33.30482693 38.47844777 -28 36.25 C-29.86279519 34.27869247 -31.73876274 32.32366592 -33.625 30.375 C-34.14707031 29.81941406 -34.66914062 29.26382813 -35.20703125 28.69140625 C-38.63337745 25.1804589 -41.21453678 23.66232869 -46 22.25 C-48 19.25 -48 19.25 -47.8125 16.6875 C-47 14.25 -47 14.25 -44 12.25 C-40.67759676 12.5741369 -39.39223697 12.85776303 -37 15.25 C-36.65001953 16.56677734 -36.65001953 16.56677734 -36.29296875 17.91015625 C-34.52709825 22.4715438 -31.7267985 25.25899006 -28.3125 28.6875 C-27.71244141 29.33654297 -27.11238281 29.98558594 -26.49414062 30.65429688 C-24.7398298 32.43121966 -23.11716611 33.92513008 -21 35.25 C-17.66307181 35.26671865 -17.66307181 35.26671865 -14 34.25 C-11.85500582 34.18648081 -9.70835 34.16846005 -7.5625 34.1875 C-6.51191406 34.19652344 -5.46132812 34.20554688 -4.37890625 34.21484375 C-3.59386719 34.22644531 -2.80882813 34.23804688 -2 34.25 C-2.10950024 30.2910768 -2.24021668 26.33313674 -2.375 22.375 C-2.4059375 21.24707031 -2.436875 20.11914062 -2.46875 18.95703125 C-2.50742188 17.88066406 -2.54609375 16.80429687 -2.5859375 15.6953125 C-2.6173584 14.70031738 -2.6487793 13.70532227 -2.68115234 12.68017578 C-2.77247083 10.07145483 -2.77247083 10.07145483 -5 8.25 C-5.25 5.25 -5.25 5.25 -5 2.25 C-3 0.25 -3 0.25 0 0 Z M-16 41.25 C-15.51917969 41.61738281 -15.03835937 41.98476563 -14.54296875 42.36328125 C-12.38795083 44.99840443 -12.49327654 47.07505636 -12.3125 50.4375 C-12.24675781 51.52417969 -12.18101563 52.61085938 -12.11328125 53.73046875 C-12.07589844 54.56191406 -12.03851563 55.39335938 -12 56.25 C-8.7 56.25 -5.4 56.25 -2 56.25 C-2 50.64 -2 45.03 -2 39.25 C-9.62073763 38.40741208 -9.62073763 38.40741208 -16 41.25 Z M2 39.25 C2 44.86 2 50.47 2 56.25 C5.3 56.25 8.6 56.25 12 56.25 C12.03738281 55.43015625 12.07476562 54.6103125 12.11328125 53.765625 C12.17902344 52.68796875 12.24476562 51.6103125 12.3125 50.5 C12.37050781 49.43265625 12.42851563 48.3653125 12.48828125 47.265625 C13.03090154 44.0678932 13.85071145 42.62401309 16 40.25 C13.23547967 38.86773984 10.9538637 39.15474613 7.875 39.1875 C5.93625 39.208125 3.9975 39.22875 2 39.25 Z M18.875 43.6875 C16.86700784 45.719861 16.07202625 46.80703854 15.609375 49.65234375 C15.62345429 51.88039189 15.734629 54.03857504 16 56.25 C18.64 56.91 21.28 57.57 24 58.25 C24.66 60.89 25.32 63.53 26 66.25 C31.00627287 67.12206044 36.32968093 68.00355557 40.79345703 65.07226562 C44.58517927 61.81948457 47.82441949 58.09502722 51 54.25 C44.61364118 47.00352551 33.03529977 43.75163023 24 41.25 C21.60229915 41.0449894 21.60229915 41.0449894 18.875 43.6875 Z M-50 52.25 C-50 56.90126011 -46.90615348 59.27794256 -43.84838867 62.4621582 C-40.00799702 66.07301762 -37.22473547 66.98497575 -31.8125 66.9375 C-29.86928562 66.76331198 -27.9272801 66.55333979 -26 66.25 C-25.34 63.61 -24.68 60.97 -24 58.25 C-21.36 57.59 -18.72 56.93 -16 56.25 C-15.27769009 50.53050766 -15.27769009 50.53050766 -17.265625 45.31640625 C-19.03831761 43.45234474 -19.03831761 43.45234474 -22 41.25 C-31.53977531 41.25 -41.72576106 47.89256056 -50 52.25 Z M-63.21484375 62.4609375 C-68.20508604 67.45817873 -73.75073452 73.50220355 -76 80.25 C-59.5 80.25 -43 80.25 -26 80.25 C-26 76.95 -26 73.65 -26 70.25 C-27.00417969 70.32863281 -28.00835937 70.40726563 -29.04296875 70.48828125 C-35.51725788 70.70374636 -40.81770816 70.67864598 -45.921875 66.2890625 C-49.16396841 63.12770332 -52.07526073 59.7030173 -55 56.25 C-57.82134093 56.25 -61.25918092 60.68817838 -63.21484375 62.4609375 Z M55 56.25 C54.2471875 57.17683594 53.494375 58.10367188 52.71875 59.05859375 C43.36069986 69.84968395 43.36069986 69.84968395 35.36328125 70.52172852 C32.21508466 70.58072188 29.14044078 70.49591385 26 70.25 C26 73.55 26 76.85 26 80.25 C42.5 80.25 59 80.25 76 80.25 C70.27310967 69.94159741 64.70698919 62.83319745 55 56.25 Z M-21 63.25 C-22.77152324 68.56456971 -22.22560289 74.30747612 -22.24023438 79.87353516 C-22.24993528 82.11007953 -22.28096772 84.34570261 -22.3125 86.58203125 C-22.31903116 88.01041123 -22.32428119 89.43879776 -22.328125 90.8671875 C-22.3374707 92.16253418 -22.34681641 93.45788086 -22.35644531 94.79248047 C-21.97627377 98.48014439 -21.29093666 100.36250719 -19 103.25 C-13.68543029 105.02152324 -7.94252388 104.47560289 -2.37646484 104.49023438 C-0.13992047 104.49993528 2.09570261 104.53096772 4.33203125 104.5625 C5.76041123 104.56903116 7.18879776 104.57428119 8.6171875 104.578125 C9.91253418 104.5874707 11.20788086 104.59681641 12.54248047 104.60644531 C16.23014439 104.22627377 18.11250719 103.54093666 21 101.25 C22.77152324 95.93543029 22.22560289 90.19252388 22.24023438 84.62646484 C22.24993528 82.38992047 22.28096772 80.15429739 22.3125 77.91796875 C22.31903116 76.48958877 22.32428119 75.06120224 22.328125 73.6328125 C22.3374707 72.33746582 22.34681641 71.04211914 22.35644531 69.70751953 C21.97627377 66.01985561 21.29093666 64.13749281 19 61.25 C13.68543029 59.47847676 7.94252388 60.02439711 2.37646484 60.00976562 C0.13992047 60.00006472 -2.09570261 59.96903228 -4.33203125 59.9375 C-5.76041123 59.93096884 -7.18879776 59.92571881 -8.6171875 59.921875 C-9.91253418 59.9125293 -11.20788086 59.90318359 -12.54248047 59.89355469 C-16.23014439 60.27372623 -18.11250719 60.95906334 -21 63.25 Z M-76 84.25 C-71.00383766 93.24309221 -65.6071919 101.38146007 -57 107.25 C-55.02119073 107.33163045 -55.02119073 107.33163045 -53 106.25 C-51.37447726 104.45396788 -49.79700348 102.61409115 -48.25 100.75 C-44.38187208 96.44034542 -41.33540181 94.59452636 -35.51269531 94.12109375 C-32.32406907 94.03617694 -29.18603118 94.07810622 -26 94.25 C-26 90.95 -26 87.65 -26 84.25 C-42.5 84.25 -59 84.25 -76 84.25 Z M26 84.25 C26 87.55 26 90.85 26 94.25 C27.01578125 94.18296875 28.0315625 94.1159375 29.078125 94.046875 C40.79227323 93.75273622 40.79227323 93.75273622 45.59375 98.0234375 C47.22123126 99.6606817 48.72185272 101.34094503 50.19238281 103.12011719 C51.66985363 104.95450008 51.66985363 104.95450008 54 107.25 C57.8625181 107.28550109 60.30832964 104.65472672 63.0625 102.19140625 C68.49733718 96.74561173 72.55851699 91.13296602 76 84.25 C59.5 84.25 43 84.25 26 84.25 Z M-51 110.25 C-44.97433749 117.08719955 -32.80885766 121.65803777 -24 123.25 C-20.54139877 121.98061976 -18.15623727 120.25333049 -16 117.25 C-15.66514195 114.22058107 -15.76657294 111.28455174 -16 108.25 C-18.64 107.59 -21.28 106.93 -24 106.25 C-24.66 103.61 -25.32 100.97 -26 98.25 C-38.59150059 96.05664183 -43.49236584 101.1596754 -51 110.25 Z M26 98.25 C25.34 100.89 24.68 103.53 24 106.25 C21.36 106.91 18.72 107.57 16 108.25 C15.25793212 113.99555823 15.25793212 113.99555823 17.3359375 119.18359375 C19.15916878 121.0184196 19.15916878 121.0184196 22 123.25 C32.24444158 120.7695545 42.47774063 117.64169453 51 111.25 C49.58132941 109.54960759 48.14841616 107.86806544 46.68359375 106.20703125 C45 104.25 45 104.25 43.72265625 102.44921875 C42.22449287 100.54122344 41.14073142 99.42340681 39 98.25 C34.62066025 97.75294232 30.38676537 97.89853809 26 98.25 Z M-12 108.25 C-12.05607422 109.47976562 -12.05607422 109.47976562 -12.11328125 110.734375 C-12.21189453 112.35085937 -12.21189453 112.35085937 -12.3125 114 C-12.37050781 115.06734375 -12.42851563 116.1346875 -12.48828125 117.234375 C-13.03090154 120.4321068 -13.85071145 121.87598691 -16 124.25 C-13.23547967 125.63226016 -10.9538637 125.34525387 -7.875 125.3125 C-5.93625 125.291875 -3.9975 125.27125 -2 125.25 C-2 119.64 -2 114.03 -2 108.25 C-5.3 108.25 -8.6 108.25 -12 108.25 Z M2 108.25 C2 113.86 2 119.47 2 125.25 C8.00679136 125.43174247 8.00679136 125.43174247 14 125.25 C14.66 124.59 15.32 123.93 16 123.25 C15.51917969 122.88261719 15.03835937 122.51523438 14.54296875 122.13671875 C12.38795083 119.50159557 12.49327654 117.42494364 12.3125 114.0625 C12.24675781 112.97582031 12.18101563 111.88914062 12.11328125 110.76953125 C12.07589844 109.93808594 12.03851563 109.10664062 12 108.25 C8.7 108.25 5.4 108.25 2 108.25 Z " fill="#000000" transform="translate(100,15.75)"/>
<path d="M0 0 C2.5 1.5 2.5 1.5 4 4 C4.791013 8.02098277 4.62153384 10.96411027 2.5 14.5 C-1.03588973 16.62153384 -3.97901723 16.791013 -8 16 C-10.5 14.5 -10.5 14.5 -12 12 C-12.791013 7.97901723 -12.62153384 5.03588973 -10.5 1.5 C-6.96411027 -0.62153384 -4.02098277 -0.791013 0 0 Z " fill="#000000" transform="translate(104,90)"/>
</svg>
