<?xml version="1.0" encoding="UTF-8"?>
<svg version="1.1" xmlns="http://www.w3.org/2000/svg" width="256" height="256">
<path d="M0 0 C2.99201404 1.99467603 4.51414004 3.43422863 5.59204102 6.90795898 C6.73156904 13.92270559 4.49382808 18.11279305 0.9375 24.0625 C0.39746338 25.00714111 -0.14257324 25.95178223 -0.69897461 26.92504883 C-2.44365724 29.96358591 -4.22040607 32.981801 -6 36 C-7.17875013 38.0328886 -8.35583691 40.06674261 -9.53125 42.1015625 C-11.86877698 46.13890342 -14.22423007 50.16495377 -16.59375 54.18359375 C-18.82089534 57.96709546 -21.00819124 61.76871439 -23.15625 65.59765625 C-23.64859131 66.46946533 -24.14093262 67.34127441 -24.64819336 68.23950195 C-25.56094184 69.85969747 -26.46599306 71.48426486 -27.36157227 73.11401367 C-30.27380218 78.25686331 -33.02230009 82.0290109 -38.875 83.9375 C-43.68478831 84.03369577 -47.35309 82.537116 -50.875 79.25 C-52.90355496 75.19289009 -53.46495145 71.43343953 -52.05859375 67.09765625 C-51.25615234 65.59525391 -51.25615234 65.59525391 -50.4375 64.0625 C-50.12868896 63.47807129 -49.81987793 62.89364258 -49.50170898 62.29150391 C-45.2052707 54.29930227 -40.52729503 46.50685058 -35.9140625 38.6953125 C-33.12120461 33.95044186 -30.39727732 29.17267671 -27.7109375 24.3671875 C-26.99158816 23.08602553 -26.27210659 21.80493779 -25.55249023 20.52392578 C-24.50093496 18.6516114 -23.45283268 16.77780207 -22.415802 14.8973999 C-21.45188528 13.15038378 -20.4742268 11.41097146 -19.49609375 9.671875 C-18.94107178 8.6725293 -18.3860498 7.67318359 -17.81420898 6.64355469 C-12.96796894 -0.41809074 -8.00701907 -1.96372488 0 0 Z " fill="#C6F651" transform="translate(247,63)"/>
<path d="M0 0 C3.65691682 1.66223492 6.00179234 3.5031366 8 7 C9.6168829 12.1971236 8.32985874 15.34283272 6 20 C3.67634655 24.27081717 1.24753345 28.47958942 -1.1875 32.6875 C-1.89386888 33.91456729 -2.59983529 35.14186635 -3.30541992 36.36938477 C-4.77991327 38.9339724 -6.25615416 41.49754297 -7.73339844 44.06054688 C-10.00123819 47.9983836 -12.25625418 51.94346123 -14.5078125 55.890625 C-15.05285179 56.84597893 -15.05285179 56.84597893 -15.60890198 57.82063293 C-17.02221014 60.29822763 -18.43525692 62.77597133 -19.84823608 65.25375366 C-20.82145946 66.9598428 -21.79547978 68.66547725 -22.76953125 70.37109375 C-23.32229736 71.33974365 -23.87506348 72.30839355 -24.44458008 73.30639648 C-24.95786865 74.19528564 -25.47115723 75.0841748 -26 76 C-26.77670044 77.35557007 -26.77670044 77.35557007 -27.5690918 78.73852539 C-29.42840685 81.67707432 -30.77500279 82.66793594 -34 84 C-38.60106159 84.68597646 -41.89220222 84.65996463 -45.9375 82.25 C-49.18087883 78.71176855 -50.46673948 76.09772201 -50.40014648 71.18823242 C-49.48738611 66.19673074 -46.41883665 61.8776626 -43.875 57.5625 C-42.93406494 55.92607544 -42.93406494 55.92607544 -41.97412109 54.2565918 C-39.99792191 50.82866713 -38.00061043 47.41372453 -36 44 C-34.74401804 41.83899112 -33.48878938 39.67754421 -32.234375 37.515625 C-29.87922576 33.4623573 -27.51222254 29.41636684 -25.13671875 25.375 C-23.2290333 22.12262756 -21.34841785 18.85981904 -19.51953125 15.5625 C-19.15972168 14.91627686 -18.79991211 14.27005371 -18.42919922 13.60424805 C-17.52782758 11.97569894 -16.63639904 10.34165644 -15.74609375 8.70703125 C-11.39762488 1.96544528 -7.97881313 -0.54093648 0 0 Z " fill="#C7F552" transform="translate(169,109)"/>
<path d="M0 0 C3.65691682 1.66223492 6.00179234 3.5031366 8 7 C9.61607461 12.19452552 8.29982471 15.33529114 6 20 C3.96207825 23.85036021 1.83150776 27.64538543 -0.3125 31.4375 C-1.23313232 33.07283691 -1.23313232 33.07283691 -2.17236328 34.74121094 C-8.17375891 45.36858685 -14.28268863 55.93220704 -20.49023438 66.44042969 C-21.84019869 68.72908199 -23.17875452 71.02400224 -24.515625 73.3203125 C-25.2176873 74.50583831 -25.92070498 75.69079924 -26.625 76.875 C-27.19476562 77.84179688 -27.76453125 78.80859375 -28.3515625 79.8046875 C-30.62174752 82.82801448 -32.48730301 83.76727739 -36.18359375 84.3359375 C-40.18287366 84.40524911 -42.42740621 84.34111971 -45.9375 82.25 C-49.11486665 78.78378183 -49.98429533 76.83234763 -50.07421875 72.06640625 C-49.11432697 65.27513728 -45.28394791 59.71762114 -41.8125 53.9375 C-41.08779389 52.70464495 -40.36458856 51.47090657 -39.64282227 50.23632812 C-38.16562873 47.71491897 -36.67993825 45.19884612 -35.18652344 42.68701172 C-32.49705277 38.16044258 -29.85557346 33.60627148 -27.21166992 29.05297852 C-25.02352584 25.28763632 -22.82713699 21.52734258 -20.61279297 17.77734375 C-19.45552707 15.78444989 -18.32764379 13.77438331 -17.21923828 11.75390625 C-16.62224121 10.68011719 -16.02524414 9.60632813 -15.41015625 8.5 C-14.87656494 7.5203125 -14.34297363 6.540625 -13.79321289 5.53125 C-10.12301211 0.35049552 -6.16997688 -0.66106895 0 0 Z " fill="#C6F551" transform="translate(53,109)"/>
<path d="M0 0 C2.92571155 1.99197382 4.52439945 3.48293132 5.59814453 6.90795898 C6.73033425 13.92164337 4.49309126 18.11402575 0.9375 24.0625 C0.39746338 25.00714111 -0.14257324 25.95178223 -0.69897461 26.92504883 C-2.44365724 29.96358591 -4.22040607 32.981801 -6 36 C-7.17875013 38.0328886 -8.35583691 40.06674261 -9.53125 42.1015625 C-11.86877698 46.13890342 -14.22423007 50.16495377 -16.59375 54.18359375 C-18.82089534 57.96709546 -21.00819124 61.76871439 -23.15625 65.59765625 C-23.64859131 66.46946533 -24.14093262 67.34127441 -24.64819336 68.23950195 C-25.56094184 69.85969747 -26.46599306 71.48426486 -27.36157227 73.11401367 C-30.27380218 78.25686331 -33.02230009 82.0290109 -38.875 83.9375 C-42.95872937 84.01917459 -45.43452386 82.95092091 -49 81 C-52.06490964 78.03725402 -52.83419899 75.22792563 -53 71 C-50.50217921 64.15615402 -46.73750988 57.90318584 -43.1875 51.5625 C-42.69686569 50.6828508 -42.69686569 50.6828508 -42.19631958 49.78543091 C-35.79758595 38.31349182 -29.25043377 26.92722551 -22.55029297 15.62841797 C-21.48853568 13.82827955 -20.44134762 12.01949059 -19.40673828 10.20361328 C-18.63499268 8.8672583 -18.63499268 8.8672583 -17.84765625 7.50390625 C-17.39527588 6.70927979 -16.94289551 5.91465332 -16.47680664 5.09594727 C-12.29888314 -0.83354079 -6.82044919 -1.88792161 0 0 Z " fill="#C6F552" transform="translate(131,63)"/>
<path d="M0 0 C0.66 0.33 1.32 0.66 2 1 C1.05584892 5.9095856 -0.51540718 9.96423757 -4.6875 12.875 C-5.8321875 13.431875 -5.8321875 13.431875 -7 14 C-5.23570801 9.02790438 -2.6060834 4.56561939 0 0 Z " fill="#C9F161" transform="translate(214,97)"/>
<path d="M0 0 C0.33 0 0.66 0 1 0 C1.33 3.3 1.66 6.6 2 10 C1.01 10.66 0.02 11.32 -1 12 C-1.144375 11.21625 -1.28875 10.4325 -1.4375 9.625 C-1.87798925 7.03578982 -1.87798925 7.03578982 -3 5 C-1.625 2.375 -1.625 2.375 0 0 Z " fill="#C8F260" transform="translate(151,122)"/>
<path d="M0 0 C0.91007812 0.00902344 1.82015625 0.01804688 2.7578125 0.02734375 C3.45648438 0.03894531 4.15515625 0.05054688 4.875 0.0625 C2.25526734 2.68223266 0.52333578 2.77063314 -3.125 3.0625 C-5.5 2.125 -5.5 2.125 -7.125 1.0625 C-4.60024538 -0.19987731 -2.81299534 -0.03606404 0 0 Z " fill="#CAEF68" transform="translate(92.125,143.9375)"/>
<path d="M0 0 C0.88492145 2.47778006 1.11637742 3.66056586 0.25 6.1875 C-1 8 -1 8 -4 9 C-2.80100302 5.9168649 -1.52299523 2.93720508 0 0 Z " fill="#CBEF64" transform="translate(20,148)"/>
</svg>
