<?xml version="1.0" encoding="UTF-8"?>
<svg version="1.1" xmlns="http://www.w3.org/2000/svg" width="2623" height="2436">
<path d="M0 0 C2.36916587 0.30240583 4.73974425 0.59179534 7.1105957 0.88067627 C32.11211725 3.96355297 56.69558662 8.37546244 81.18286133 14.27862549 C81.84078674 14.43633423 82.49871216 14.59404297 83.17657471 14.75653076 C131.96980228 26.49738674 179.00825263 45.03303889 223.55786133 68.02862549 C224.69296143 68.61297363 225.82806152 69.19732178 226.99755859 69.79937744 C235.46361147 74.24229787 235.46361147 74.24229787 238.18286133 77.27862549 C224.59619218 100.60039299 210.98123793 123.90468926 197.20288086 147.11383057 C192.33497027 155.31924185 187.50185373 163.54444367 182.68286133 171.77862549 C176.55759767 182.24482474 170.39307279 192.68686891 164.20239258 203.11456299 C159.33472893 211.3197799 154.50170577 219.54469648 149.68286133 227.77862549 C143.5584237 238.24341331 137.39538916 248.68444373 131.20458984 259.11016846 C125.94928251 267.96739898 120.74284219 276.85250596 115.54473877 285.74337769 C110.60653578 294.18616169 105.6095846 302.59056854 100.55786133 310.96612549 C94.71463204 320.65544262 89.02776803 330.42756515 83.39208984 340.23883057 C79.47613432 347.05200275 75.51681446 353.83047906 71.43286133 360.54425049 C69.64334959 363.49071761 67.90948678 366.46677054 66.18286133 369.45050049 C65.39141724 370.80425781 65.39141724 370.80425781 64.58398438 372.18536377 C63.55305562 373.94936573 62.53055182 375.71832879 61.51806641 377.49298096 C58.09357575 383.31594982 54.85459828 388.05471317 48.18286133 390.27862549 C40.41703492 391.16499154 34.6034456 389.29232307 27.55786133 386.21612549 C-3.11618785 373.56901752 -34.86177691 367.83032255 -67.94213867 367.96612549 C-68.88934784 367.96828064 -69.83655701 367.97043579 -70.81246948 367.97265625 C-85.00576247 368.02442328 -98.8651494 368.45143893 -112.81713867 371.27862549 C-113.84468262 371.48261963 -114.87222656 371.68661377 -115.9309082 371.89678955 C-159.65898436 380.7965639 -200.63760015 399.23376587 -234.24316406 428.89337158 C-235.38470792 429.8980435 -236.53327404 430.89475449 -237.68603516 431.88653564 C-249.01972793 441.67127662 -259.77173044 452.32872837 -268.81713867 464.27862549 C-269.23237793 464.81745361 -269.64761719 465.35628174 -270.07543945 465.91143799 C-311.9026065 520.3187774 -330.59313247 589.17775648 -321.81713867 657.27862549 C-313.59191811 712.1024732 -290.01249429 761.11643973 -251.81713867 801.27862549 C-251.27927734 801.84516846 -250.74141602 802.41171143 -250.18725586 802.99542236 C-242.49493824 811.03880474 -234.52300564 818.30826201 -225.5925293 824.95196533 C-223.80370982 826.28866019 -222.03649435 827.65054991 -220.27026367 829.01690674 C-210.64504737 836.37369369 -200.44692648 842.4872081 -189.81713867 848.27862549 C-189.15665527 848.64052979 -188.49617188 849.00243408 -187.81567383 849.37530518 C-160.0974556 864.37946889 -129.96486036 873.1275614 -98.81713867 877.27862549 C-98.08648193 877.38175049 -97.3558252 877.48487549 -96.60302734 877.59112549 C-73.45585715 880.41302933 -47.64415338 879.81281481 -24.81713867 875.27862549 C-23.81328125 875.08526611 -22.80942383 874.89190674 -21.77514648 874.69268799 C24.27080933 865.5874761 68.01869483 844.74337375 102.18286133 812.27862549 C103.55155096 811.08385775 104.92616108 809.89582277 106.30786133 808.71612549 C113.54245951 802.39506109 119.95083367 795.57671712 125.94458008 788.07159424 C127.37895714 786.28175201 128.83803867 784.51126842 130.32739258 782.76690674 C165.18203193 741.75775449 185.44659363 686.92234153 187.37426758 633.33721924 C187.40673584 632.52921875 187.4392041 631.72121826 187.47265625 630.88873291 C187.52711218 629.38035047 187.56415805 627.87117333 187.57861328 626.36187744 C187.78361454 619.85942174 189.93523816 614.58699523 194.49536133 609.90362549 C202.00018989 605.36582217 209.95609444 606.00051901 218.46385193 606.03811646 C219.9300734 606.03724378 221.39629457 606.03549166 222.86251408 606.03293812 C226.88289589 606.02847273 230.90317084 606.03645715 234.92353904 606.04649425 C239.26224311 606.05513809 243.60094124 606.05220792 247.93965149 606.0506897 C255.45389163 606.04964144 262.96809702 606.05591188 270.48232841 606.06716537 C281.34661622 606.0834254 292.21088724 606.0886289 303.0751859 606.09114136 C320.70215169 606.09551767 338.32909896 606.10882505 355.95605469 606.12774658 C373.07812406 606.14610703 390.2001884 606.16026273 407.32226562 606.16876221 C408.90560168 606.16955038 408.90560168 606.16955038 410.52092432 606.17035447 C415.81639107 606.17296456 421.11185786 606.17549197 426.40732467 606.17797828 C470.33251638 606.19870879 514.2576879 606.23393259 558.18286133 606.27862549 C558.21433719 612.03054841 558.23671239 617.78241856 558.25152588 623.53440857 C558.25771722 625.48117448 558.26617257 627.42793482 558.27716064 629.37467957 C558.44101762 659.20580539 555.7887315 688.81011984 551.18286133 718.27862549 C551.00529297 719.41702881 550.82772461 720.55543213 550.64477539 721.72833252 C538.33864476 798.75681331 510.4203329 873.53133846 470.18286133 940.27862549 C469.67980469 941.11925537 469.17674805 941.95988525 468.65844727 942.82598877 C456.44276307 963.22790652 443.13260566 982.96912884 428.43920898 1001.67510986 C427.13129206 1003.34444495 425.83423758 1005.0218295 424.53833008 1006.70050049 C415.91372313 1017.83137696 406.78867348 1028.50205395 397.31958008 1038.92315674 C395.87482 1040.51582645 394.44014514 1042.11769405 393.01489258 1043.72784424 C387.30369505 1050.16684039 381.30800901 1056.23700255 375.18286133 1062.27862549 C372.12349413 1065.32749743 369.07938375 1068.39120088 366.03833008 1071.45831299 C364.48240234 1073.02347864 362.92641112 1074.58858119 361.37036133 1076.15362549 C360.60143555 1076.93093018 359.83250977 1077.70823486 359.0402832 1078.50909424 C354.2540074 1083.3155653 349.33526486 1087.86946527 344.18286133 1092.27862549 C342.99137938 1093.32393212 341.80124551 1094.3707776 340.61254883 1095.41925049 C332.95316091 1102.13361436 325.15039437 1108.58424694 317.08422852 1114.80255127 C315.03503795 1116.39338411 313.00281455 1118.00434861 310.97192383 1119.61846924 C300.36597251 1128.0166511 289.45439179 1135.80133681 278.18286133 1143.27862549 C277.38122559 1143.81342529 276.57958984 1144.3482251 275.75366211 1144.89923096 C218.78496681 1182.82140385 156.31772966 1211.62664974 90.18286133 1229.27862549 C89.20430176 1229.54481689 88.22574219 1229.8110083 87.2175293 1230.08526611 C59.07062401 1237.70165768 30.13656965 1242.956447 1.18286133 1246.27862549 C-0.02789063 1246.42815674 -1.23864258 1246.57768799 -2.48608398 1246.73175049 C-46.93022094 1252.0645872 -94.40866574 1251.74411947 -138.81713867 1246.27862549 C-140.23329586 1246.11047812 -141.64947464 1245.94251248 -143.06567383 1245.77471924 C-216.17620672 1236.9693079 -286.079702 1215.26388304 -351.81713867 1182.27862549 C-352.92879395 1181.72142822 -354.04044922 1181.16423096 -355.18579102 1180.59014893 C-395.73084906 1160.15260746 -434.14152228 1134.61953167 -468.81713867 1105.27862549 C-469.34291504 1104.83631592 -469.86869141 1104.39400635 -470.41040039 1103.93829346 C-478.56165467 1097.07249175 -486.47491034 1089.99018921 -494.2644043 1082.71807861 C-496.718301 1080.44320834 -499.20962582 1078.20967989 -501.69213867 1075.96612549 C-510.86973896 1067.55637224 -519.98952133 1058.87462574 -528.02416992 1049.35284424 C-529.99929023 1047.06790114 -532.04878591 1044.86531214 -534.11083984 1042.65899658 C-539.05955525 1037.3611129 -543.82184736 1031.98401574 -548.36010742 1026.32550049 C-550.21659413 1024.02333891 -552.09209491 1021.74680208 -553.99291992 1019.48175049 C-575.36329883 993.96609859 -594.2897851 966.16671977 -610.81713867 937.27862549 C-611.23576172 936.54885498 -611.65438477 935.81908447 -612.08569336 935.06719971 C-615.06759308 929.84249369 -617.96410744 924.57467786 -620.81713867 919.27862549 C-621.28619629 918.4089917 -621.75525391 917.53935791 -622.23852539 916.64337158 C-661.21755767 844.01873875 -685.06138059 763.39318477 -693.81713867 663.27862549 C-693.92300293 661.78685791 -693.92300293 661.78685791 -694.03100586 660.26495361 C-699.36394467 581.65348528 -687.95576436 501.83182097 -540.20727539 210.85968018 C-536.31762176 206.43583105 -532.28528398 202.14234502 -528.26391602 197.83868408 C-526.0262392 195.42579936 -523.83341916 192.97245469 -521.62963867 190.52862549 C-516.91743409 185.38492543 -512.05332441 180.40743587 -507.12963867 175.46612549 C-506.4287915 174.76068604 -505.72794434 174.05524658 -505.00585938 173.32843018 C-501.01935077 169.35364522 -496.93109033 165.56045167 -492.66796875 161.88433838 C-490.05516113 159.61756147 -487.53577973 157.26130373 -485.00463867 154.90362549 C-480.43550531 150.68712645 -475.75091114 146.67104505 -470.90307617 142.77471924 C-468.57526423 140.8918435 -466.27255847 138.99011918 -463.98120117 137.06378174 C-454.62141918 129.21758066 -445.01309913 121.88082782 -435.03149414 114.84454346 C-432.86895005 113.31526476 -430.71869121 111.77014138 -428.57104492 110.22003174 C-418.25203194 102.80192679 -407.65538397 95.91237908 -396.81713867 89.27862549 C-396.00245117 88.77782471 -395.18776367 88.27702393 -394.34838867 87.76104736 C-357.35999837 65.13455549 -318.56298735 46.99462821 -277.81713867 32.27862549 C-277.18052307 32.04830627 -276.54390747 31.81798706 -275.88800049 31.58068848 C-232.30499239 15.8710782 -186.92734419 5.97631527 -140.9675293 0.5357666 C-138.92537471 0.29156822 -136.88492595 0.03618656 -134.84448242 -0.22186279 C-91.12857584 -5.55401235 -43.68905756 -5.60251864 0 0 Z " fill="#8ADA67" transform="translate(694.817138671875,1186.7213745117188)"/>
<path d="M0 0 C1.45015493 -0.00702161 2.90030955 -0.01410843 4.35046387 -0.02125549 C8.95890752 -0.04065545 13.56730088 -0.04568945 18.17578125 -0.046875 C19.35313025 -0.04753778 19.35313025 -0.04753778 20.55426407 -0.04821396 C43.99619261 -0.05513665 67.2025273 0.22187371 90.48828125 3.203125 C91.91105525 3.37710035 93.33390932 3.55042188 94.75683594 3.72314453 C164.04941455 12.23616532 230.49879032 32.29963807 293.48828125 62.203125 C294.48021484 62.67347168 295.47214844 63.14381836 296.49414062 63.62841797 C322.9783394 76.29039642 348.31870757 91.5667605 372.48828125 108.203125 C373.1524707 108.66009766 373.81666016 109.11707031 374.50097656 109.58789062 C389.31307433 119.82271087 403.68635631 130.63771636 417.48828125 142.203125 C418.00342285 142.63334961 418.51856445 143.06357422 419.04931641 143.50683594 C425.45888577 148.86493931 431.79389244 154.28819636 437.96777344 159.91821289 C439.49997732 161.30719934 441.04011024 162.68759068 442.59423828 164.05200195 C450.0602045 170.63308243 457.07853611 177.64134185 464.1027832 184.68725586 C466.17872551 186.76857689 468.25998547 188.84447313 470.34179688 190.91992188 C471.68651877 192.26530438 473.03093054 193.61099694 474.375 194.95703125 C474.98558762 195.56559464 475.59617523 196.17415802 476.2252655 196.80116272 C480.50846914 201.10733417 484.53212422 205.59606477 488.48828125 210.203125 C489.42678054 211.28541888 490.36552739 212.36749824 491.3046875 213.44921875 C504.34872272 228.57625129 516.86634895 243.94895256 528.48828125 260.203125 C529.14119141 261.11400879 529.79410156 262.02489258 530.46679688 262.96337891 C539.29606424 275.32900911 547.56259255 287.88224079 555.20361328 301.01464844 C556.35776865 302.98079225 557.53604949 304.92775696 558.734375 306.8671875 C605.33800475 382.39867506 632.22931181 469.39298057 642.48828125 557.203125 C642.57291626 557.92125366 642.65755127 558.63938232 642.74475098 559.37927246 C647.92659851 604.00427395 647.73419254 650.59047045 642.48828125 695.203125 C642.39117859 696.03017944 642.29407593 696.85723389 642.19403076 697.70935059 C632.64193341 777.85756544 608.54687904 855.40672931 507.48828125 1019.203125 C506.04929982 1020.97275473 504.61184411 1022.74362601 503.17578125 1024.515625 C488.84916664 1041.98469221 473.49952705 1058.27559246 457.55078125 1074.265625 C456.96465057 1074.85443451 456.3785199 1075.44324402 455.77462769 1076.04989624 C449.52168454 1082.32450881 443.24593449 1088.46710764 436.48828125 1094.203125 C434.88059752 1095.65758017 433.2758841 1097.11533395 431.67578125 1098.578125 C426.42647148 1103.30888593 420.9920418 1107.77309552 415.48828125 1112.203125 C414.35514428 1113.12850908 413.22234676 1114.05430893 412.08984375 1114.98046875 C403.25707345 1122.16845856 394.16304744 1128.92667128 384.87255859 1135.51025391 C382.44215545 1137.23587498 380.0217908 1138.97498934 377.6015625 1140.71484375 C364.46775641 1150.09687054 350.98633754 1159.05249409 336.48828125 1166.203125 C336.04137939 1165.43983887 335.59447754 1164.67655273 335.1340332 1163.89013672 C325.61880161 1147.64129249 316.08049688 1131.40668419 306.48828125 1115.203125 C298.99129038 1102.53890435 291.52366425 1089.8579958 284.0880127 1077.15768433 C278.2624372 1067.20932617 272.3968747 1057.2854859 266.51074219 1047.37280273 C261.25517676 1038.51517348 256.04850163 1029.62965421 250.85015869 1020.7383728 C245.91195571 1012.2955888 240.91500452 1003.89118195 235.86328125 995.515625 C230.01616051 985.81985501 224.32513768 976.04142088 218.68652344 966.22314453 C215.21729782 960.18625351 211.71206978 954.18022948 208.10424805 948.22509766 C204.14558808 941.67326771 200.29149156 935.06002002 196.42578125 928.453125 C190.76006087 918.77348365 185.07974441 909.10290857 179.36328125 899.453125 C178.71601074 898.36032227 178.06874023 897.26751953 177.40185547 896.14160156 C174.01707372 890.43638172 170.61424095 884.74257861 167.1875 879.0625 C166.83786194 878.48236145 166.48822388 877.9022229 166.12799072 877.30450439 C164.45430587 874.52775578 162.77753731 871.75297181 161.09521484 868.98144531 C160.50434082 868.00272461 159.9134668 867.02400391 159.3046875 866.015625 C158.78334229 865.15582031 158.26199707 864.29601562 157.72485352 863.41015625 C154.95582954 858.46800882 155.03824736 853.72469464 155.48828125 848.203125 C157.93071773 840.41785873 165.31769828 836.00124274 171.67578125 831.453125 C201.21227367 810.26833044 224.49959291 782.63434078 242.48828125 751.203125 C242.85421387 750.56987305 243.22014648 749.93662109 243.59716797 749.28417969 C258.75558303 722.79543496 267.79757904 693.26153617 272.48828125 663.203125 C272.6054248 662.48721191 272.72256836 661.77129883 272.84326172 661.03369141 C282.39790942 600.19912174 266.08768236 533.73509954 231.48828125 483.203125 C231.1020459 482.63287598 230.71581055 482.06262695 230.31787109 481.47509766 C223.98297317 472.16852842 216.96671651 463.60896516 209.48828125 455.203125 C209.02808594 454.67976563 208.56789063 454.15640625 208.09375 453.6171875 C165.98667032 405.80684343 103.7109948 376.34200426 40.48828125 371.203125 C37.29634503 371.05896949 34.10898299 371.0172319 30.9140625 371 C30.03589874 370.99294037 29.15773499 370.98588074 28.25296021 370.97860718 C1.22902976 370.73278051 1.22902976 370.73278051 -25.51171875 374.203125 C-26.5392627 374.40711914 -27.56680664 374.61111328 -28.62548828 374.82128906 C-62.72219021 381.76083409 -97.25557404 394.44350848 -125.51171875 415.203125 C-126.40866455 415.8518457 -126.40866455 415.8518457 -127.32373047 416.51367188 C-147.0249894 430.78668332 -165.69113099 446.7857774 -180.51171875 466.203125 C-181.43969087 467.37923247 -182.36810595 468.55499052 -183.296875 469.73046875 C-191.31720511 480.01371511 -198.0408566 490.8946827 -204.51171875 502.203125 C-204.88780273 502.84540039 -205.26388672 503.48767578 -205.65136719 504.14941406 C-225.79654123 538.63265564 -235.00141535 579.58974233 -236.51171875 619.203125 C-236.57552734 620.82154297 -236.57552734 620.82154297 -236.640625 622.47265625 C-237.90364319 690.75983951 -210.65087528 756.42903667 -163.52734375 805.37109375 C-154.82670866 814.27773417 -145.86448142 822.35207705 -135.75390625 829.64453125 C-134.90223877 830.26183105 -134.05057129 830.87913086 -133.1730957 831.51513672 C-131.47618601 832.7397173 -129.77185364 833.95409546 -128.05932617 835.15673828 C-122.46172222 839.17620602 -118.74187884 842.51264472 -116.51171875 849.203125 C-115.32920837 860.4369736 -122.82054266 869.59680343 -128.44921875 878.828125 C-133.49265557 887.16677182 -138.48927266 895.52784557 -143.38671875 903.953125 C-143.95261719 904.92596436 -144.51851562 905.89880371 -145.1015625 906.90112305 C-146.28127565 908.92957793 -147.46079628 910.9581448 -148.64013672 912.98681641 C-152.06747962 918.8766958 -155.50591109 924.76006664 -158.94921875 930.640625 C-159.48669739 931.55873459 -159.48669739 931.55873459 -160.03503418 932.49539185 C-165.61298799 942.01835646 -171.27553722 951.4878024 -176.97485352 960.9387207 C-182.19762387 969.62433174 -187.26626805 978.39461847 -192.31347656 987.18310547 C-195.78270218 993.21999649 -199.28793022 999.22602052 -202.89575195 1005.18115234 C-206.85440936 1011.73297806 -210.70875368 1018.34609008 -214.57421875 1024.953125 C-220.191778 1034.55345745 -225.83285799 1044.13887647 -231.51171875 1053.703125 C-237.0422875 1063.01877269 -242.53966029 1072.35305333 -248.01171875 1081.703125 C-254.13101622 1092.15912987 -260.28836185 1102.59170638 -266.47460938 1113.00830078 C-270.00425964 1118.95651209 -273.51927544 1124.91269792 -277.01171875 1130.8828125 C-277.3886084 1131.52692078 -277.76549805 1132.17102905 -278.15380859 1132.83465576 C-279.96416047 1135.9294815 -281.77257895 1139.02541505 -283.578125 1142.12304688 C-285.54526451 1145.48951166 -287.52739529 1148.84676686 -289.51171875 1152.203125 C-289.86685547 1152.81482544 -290.22199219 1153.42652588 -290.58789062 1154.0567627 C-291.6564337 1155.89564247 -292.73884263 1157.72570565 -293.82421875 1159.5546875 C-294.77748047 1161.18011475 -294.77748047 1161.18011475 -295.75 1162.83837891 C-296.62205078 1164.00892822 -296.62205078 1164.00892822 -297.51171875 1165.203125 C-301.59720596 1165.203125 -304.22467768 1163.30311691 -307.63671875 1161.265625 C-308.37100098 1160.82959961 -309.1052832 1160.39357422 -309.86181641 1159.94433594 C-332.99508457 1145.96867731 -354.97142522 1129.86646021 -375.77490234 1112.63574219 C-378.2740628 1110.57430368 -380.80217246 1108.54895793 -383.32421875 1106.515625 C-387.92945231 1102.74707802 -392.34045409 1098.79524196 -396.7109375 1094.7578125 C-398.88998898 1092.7702258 -401.08966546 1090.82361854 -403.31640625 1088.890625 C-407.62198016 1085.13496842 -411.79640861 1081.25132584 -415.94921875 1077.328125 C-416.69349121 1076.62558594 -417.43776367 1075.92304687 -418.20458984 1075.19921875 C-425.22799532 1068.55209457 -432.14625045 1061.9039159 -438.44140625 1054.5546875 C-440.63873646 1052.05885205 -442.90105649 1049.63511515 -445.17724609 1047.21142578 C-450.42415961 1041.62281096 -455.47564984 1035.96452426 -460.26953125 1029.9765625 C-462.33679135 1027.41949861 -464.45198624 1024.91648538 -466.59277344 1022.42138672 C-472.19208822 1015.88756826 -477.44325693 1009.1593402 -482.51171875 1002.203125 C-482.99366699 1001.54715332 -483.47561523 1000.89118164 -483.97216797 1000.21533203 C-502.26548713 975.30928297 -518.66853319 949.30767306 -533.51171875 922.203125 C-534.01558105 921.28337891 -534.51944336 920.36363281 -535.03857422 919.41601562 C-576.85149202 842.51181407 -600.44440969 755.22833072 -607.51171875 639.203125 C-607.53363281 638.22843262 -607.55554688 637.25374023 -607.578125 636.24951172 C-608.63318862 582.45005919 -602.27884638 528.44474866 -589.51171875 476.203125 C-589.23134766 475.05166992 -588.95097656 473.90021484 -588.66210938 472.71386719 C-577.48686613 427.48250187 -560.94596753 383.74710451 -539.60595703 342.33398438 C-538.35350218 339.89502277 -537.11919563 337.44714633 -535.8828125 335 C-513.0602387 290.18074575 -483.68750988 247.89587236 -449.77734375 210.71484375 C-447.8933347 208.62619234 -446.04066011 206.51713234 -444.1953125 204.39453125 C-440.65153874 200.33713279 -437.01298604 196.37874537 -433.32421875 192.453125 C-432.35246704 191.41877319 -432.35246704 191.41877319 -431.36108398 190.36352539 C-423.786421 182.33350909 -416.17557942 174.32569571 -407.7578125 167.16796875 C-405.29466705 165.01325195 -402.91228445 162.78516632 -400.52734375 160.54467773 C-394.06343821 154.4752707 -387.43890005 148.74303259 -380.51171875 143.203125 C-379.32013766 142.22184278 -378.13013279 141.23864455 -376.94140625 140.25390625 C-366.74980093 131.83570733 -356.24221064 123.9200555 -345.51171875 116.203125 C-344.70186523 115.61885742 -343.89201172 115.03458984 -343.05761719 114.43261719 C-316.9651108 95.67377278 -289.18387971 79.66987576 -260.51171875 65.203125 C-259.40296387 64.64334961 -258.29420898 64.08357422 -257.15185547 63.50683594 C-182.81545623 26.229364 -100.49530089 5.07465394 0 0 Z " fill="#FF2A44" transform="translate(1281.51171875,-0.203125)"/>
<path d="M0 0 C5.48729358 1.50205979 9.77217503 4.13477188 14.5 7.1875 C15.32242188 7.71359863 16.14484375 8.23969727 16.9921875 8.78173828 C39.55912222 23.31386159 61.38192447 38.8063609 82 56 C82.87760986 56.72896484 82.87760986 56.72896484 83.77294922 57.47265625 C90.41690757 63.00018861 96.91438066 68.65554973 103.26953125 74.515625 C105.38842831 76.4435485 107.53044624 78.32288803 109.69970703 80.19262695 C113.80298282 83.77999457 117.68838591 87.54334377 121.53515625 91.40234375 C122.21750839 92.08373917 122.89986053 92.76513458 123.60289001 93.46717834 C125.03344437 94.89705741 126.46275767 96.32817911 127.89086914 97.76049805 C130.05699074 99.93197711 132.22840174 102.09806325 134.40039062 104.26367188 C135.79979987 105.66374202 137.19889884 107.06412238 138.59765625 108.46484375 C139.23639175 109.10155502 139.87512726 109.7382663 140.53321838 110.39427185 C144.88578196 114.76916925 148.97593334 119.32287921 153 124 C154.04551922 125.19129541 155.09219519 126.38157782 156.140625 127.5703125 C162.85139728 135.22560333 169.29971417 143.02390466 175.51513672 151.08544922 C177.13399041 153.17276436 178.770812 155.24514992 180.41015625 157.31640625 C187.54915532 166.36298025 194.34567401 175.54943875 200.74707031 185.13232422 C201.91970706 186.88031157 203.1088516 188.61549051 204.3046875 190.34765625 C249.628402 256.46718372 280.35973187 331.68813664 307.25 473.4375 C307.33326538 474.20246796 307.41653076 474.96743591 307.50231934 475.75558472 C308.04785978 480.83310162 308.54435747 485.9136493 309 491 C309.10602539 492.16781006 309.21205078 493.33562012 309.32128906 494.53881836 C310.43886878 509.21656556 310.24595163 523.97520305 310.25 538.6875 C310.25044186 539.42279182 310.25088371 540.15808365 310.25133896 540.91565704 C310.25862827 564.06926649 309.79687604 586.99132969 307 610 C306.82645292 611.47718921 306.65311808 612.95440337 306.47998047 614.43164062 C295.95169215 702.96708646 266.45937441 788.59377165 165.6015625 940.9296875 C163.25742299 943.67734045 161.00116684 946.48800228 158.75 949.3125 C153.18851097 956.13841283 147.10239461 962.4626958 141.04101562 968.84130859 C138.95718289 971.04528576 136.89070434 973.26441244 134.828125 975.48828125 C128.49316114 982.30511582 122.19734086 988.98571086 115.1640625 995.08984375 C112.97402238 997.0229297 110.92234614 999.04208221 108.875 1001.125 C105.08209566 1004.96305797 101.09919007 1008.49411375 97 1012 C95.95787415 1012.90572194 94.91624715 1013.81201803 93.875 1014.71875 C86.40297078 1021.20465008 78.80074758 1027.47691207 70.95068359 1033.5 C69.61919353 1034.5238642 68.29154619 1035.55274032 66.96728516 1036.5859375 C55.71181413 1045.35763777 44.05260566 1053.45886842 32.1875 1061.375 C31.49643158 1061.83717926 30.80536316 1062.29935852 30.09335327 1062.77554321 C20.55892703 1069.14027348 10.87579045 1075.18053093 1 1081 C0.14349854 1081.51224121 -0.71300293 1082.02448242 -1.59545898 1082.55224609 C-35.4898781 1102.78891833 -71.75591235 1119.03138945 -109 1132 C-109.62739075 1132.21871765 -110.25478149 1132.4374353 -110.90118408 1132.66278076 C-191.82626909 1160.78449515 -278.23215091 1171.66255722 -588 1105 C-589.14210938 1104.45085937 -590.28421875 1103.90171875 -591.4609375 1103.3359375 C-634.28668926 1082.63209724 -674.62009327 1056.78267612 -711.26318359 1026.43261719 C-713.76234405 1024.37117868 -716.29045371 1022.34583293 -718.8125 1020.3125 C-723.41773356 1016.54395302 -727.82873534 1012.59211696 -732.19921875 1008.5546875 C-734.37693679 1006.56831707 -736.575284 1004.62306789 -738.80078125 1002.69140625 C-743.1300668 998.91519674 -747.32386297 995.00662942 -751.5 991.0625 C-752.20769531 990.39798828 -752.91539062 989.73347656 -753.64453125 989.04882812 C-760.49482127 982.59302464 -767.1591112 976.06650366 -773.29296875 968.921875 C-774.92002562 967.0900398 -776.61302329 965.38871889 -778.375 963.6875 C-782.14140094 959.98835622 -785.38192973 955.9221279 -788.6875 951.8125 C-790.84349735 949.19034106 -793.07567103 946.68391432 -795.375 944.1875 C-800.93560459 938.06124771 -805.97605289 931.56499706 -811 925 C-811.84739746 923.89736816 -811.84739746 923.89736816 -812.71191406 922.77246094 C-837.43896195 890.51569755 -858.69797436 856.27342681 -877 820 C-877.55977539 818.89124512 -878.11955078 817.78249023 -878.69628906 816.64013672 C-914.15343496 745.93371764 -934.38517341 668.68739704 -941 590 C-941.08846191 588.95144836 -941.17692383 587.90289673 -941.26806641 586.8225708 C-941.95706517 577.99782062 -942.17700896 569.21601627 -942.203125 560.3671875 C-942.2101437 558.8931373 -942.21723054 557.41908742 -942.22438049 555.94503784 C-942.24380576 551.25502086 -942.24881478 546.56505314 -942.25 541.875 C-942.25044186 541.07683365 -942.25088371 540.2786673 -942.25133896 539.45631409 C-942.25819979 515.84364271 -942.02795781 492.45349524 -939 469 C-938.82083264 467.55718551 -938.64213661 466.11431243 -938.46386719 464.67138672 C-927.81712848 379.52366045 -900.9202657 296.52029315 -856.67578125 222.80029297 C-855.06991104 220.11682395 -853.48504062 217.4221244 -851.90625 214.72265625 C-845.0929453 203.12734267 -837.75498826 191.98527198 -830 181 C-829.4622998 180.23413574 -828.92459961 179.46827148 -828.37060547 178.67919922 C-821.0989065 168.34757282 -813.44978084 158.42173807 -805.39257812 148.69238281 C-803.54286922 146.44445467 -801.73962447 144.16116617 -799.9375 141.875 C-786.39809516 124.94367745 -771.4812845 109.30226609 -756.13867188 94.00830078 C-754.10167579 91.976738 -752.07018049 89.93978164 -750.0390625 87.90234375 C-748.71646683 86.58040793 -747.39356151 85.25878183 -746.0703125 83.9375 C-745.47743439 83.34259766 -744.88455627 82.74769531 -744.27371216 82.13476562 C-740.01019829 77.89463046 -735.55431033 73.92402094 -731 70 C-729.80877024 68.95440598 -728.61849488 67.90772237 -727.4296875 66.859375 C-719.80827403 60.17763149 -712.06180549 53.72858464 -704.02148438 47.55761719 C-701.77079959 45.82339388 -699.53429568 44.07161086 -697.296875 42.3203125 C-684.29143486 32.20510901 -670.82863412 22.9497206 -657 14 C-656.06124023 13.38979004 -655.12248047 12.77958008 -654.15527344 12.15087891 C-651.52577265 10.44584837 -648.88999195 8.75123147 -646.25 7.0625 C-645.07993408 6.30888184 -645.07993408 6.30888184 -643.88623047 5.54003906 C-643.16580566 5.08467773 -642.44538086 4.62931641 -641.703125 4.16015625 C-641.08083008 3.76449463 -640.45853516 3.36883301 -639.81738281 2.96118164 C-637.89529869 1.94462533 -636.12292592 1.43812455 -634 1 C-633.53215088 1.79994385 -633.06430176 2.5998877 -632.58227539 3.42407227 C-622.49360947 20.72665671 -622.49360947 20.72665671 -612.25 37.9375 C-608.22147537 44.61576168 -604.25223848 51.32803265 -600.28808594 58.04467773 C-595.86711894 65.53477205 -591.43558085 73.01855225 -587 80.5 C-581.63704756 89.5463732 -576.28143117 98.59702802 -570.93359375 107.65234375 C-566.62929228 114.93898678 -562.31559738 122.22004283 -558 129.5 C-550.46650078 142.20854364 -542.94898982 154.92647633 -535.43652344 167.64746094 C-528.96609401 178.60330317 -522.48821513 189.55467994 -516 200.5 C-508.4665545 213.20857556 -500.94898988 225.92647623 -493.43652344 238.64746094 C-487.64727131 248.44992207 -481.85513493 258.25064171 -476.04833984 268.04272461 C-474.68787912 270.33753476 -473.33077254 272.63423324 -471.97509766 274.93188477 C-468.73806145 280.41330276 -465.47468637 285.87322522 -462.12890625 291.2890625 C-461.52626953 292.27583984 -460.92363281 293.26261719 -460.30273438 294.27929688 C-459.18057726 296.11429453 -458.0460233 297.94179609 -456.89648438 299.75976562 C-453.30653778 305.6690857 -451.14839421 311.12507751 -452.36938477 318.11450195 C-454.90863439 326.46168297 -463.09424343 330.89505518 -469.8125 335.8125 C-476.2110638 340.55176773 -482.17065462 345.57122447 -488 351 C-489.35006164 352.17141454 -490.70407514 353.3382942 -492.0625 354.5 C-500.24016221 361.65955969 -507.23633596 369.50892535 -514 378 C-514.63421875 378.75539063 -515.2684375 379.51078125 -515.921875 380.2890625 C-526.51642735 393.02879281 -535.33848798 407.33520442 -543 422 C-543.39396973 422.74459473 -543.78793945 423.48918945 -544.19384766 424.25634766 C-555.71875333 446.30578075 -563.51639241 470.5536634 -568 495 C-568.16081055 495.81130371 -568.32162109 496.62260742 -568.48730469 497.45849609 C-573.79782276 525.03486676 -573.6068458 557.49547299 -568 585 C-567.79600586 586.02609375 -567.59201172 587.0521875 -567.38183594 588.109375 C-560.4429293 622.20799043 -547.7607461 656.7423178 -527 685 C-526.56751953 685.59796387 -526.13503906 686.19592773 -525.68945312 686.81201172 C-511.43983175 706.48098498 -495.44701729 725.27265273 -476 740 C-475.33693848 740.51240234 -474.67387695 741.02480469 -473.99072266 741.55273438 C-462.52014465 750.39836806 -450.75027499 758.1296925 -438 765 C-437.34531738 765.35755371 -436.69063477 765.71510742 -436.01611328 766.08349609 C-403.39756988 783.74730239 -365.4372311 795.00756638 -328.20703125 795.203125 C-327.30662613 795.21018463 -326.40622101 795.21724426 -325.47853088 795.22451782 C-298.09608436 795.48973115 -298.09608436 795.48973115 -271 792 C-269.50073975 791.70996094 -269.50073975 791.70996094 -267.97119141 791.4140625 C-228.32686315 783.57830691 -190.70804301 767.20973768 -159 742 C-157.63875 740.92685547 -157.63875 740.92685547 -156.25 739.83203125 C-142.16234142 728.5258848 -129.23499698 716.15942783 -118 702 C-117.13795875 700.95080288 -116.27463836 699.90265565 -115.41015625 698.85546875 C-89.89443572 667.63210198 -73.20732218 629.54846055 -65.1875 590.1875 C-64.89516479 588.75917847 -64.89516479 588.75917847 -64.59692383 587.30200195 C-61.60364059 571.71819634 -60.61812758 556.21681078 -60.6875 540.375 C-60.68932281 539.50392609 -60.69114563 538.63285217 -60.69302368 537.73538208 C-60.74247852 523.63785486 -61.45246097 509.89382755 -64 496 C-64.16097168 495.08154297 -64.32194336 494.16308594 -64.48779297 493.21679688 C-76.51387862 426.35129857 -115.83451092 369.66160005 -169.9453125 329.83203125 C-175.52661155 325.65987206 -179.14348116 322.21194564 -181 315.25 C-181.71787223 305.99064654 -174.82546111 296.99370389 -170.1875 289.5 C-168.83789784 287.28634144 -167.49030247 285.07145838 -166.14453125 282.85546875 C-165.80095581 282.2908342 -165.45738037 281.72619965 -165.10339355 281.14445496 C-161.42854358 275.09040967 -157.8970482 268.95624732 -154.375 262.8125 C-149.32300853 254.01404395 -144.21914143 245.25032218 -139.04541016 236.52294922 C-134.59111348 229.00758557 -130.16592681 221.47544126 -125.75 213.9375 C-125.02693834 212.70353103 -124.30387518 211.46956293 -123.58081055 210.2355957 C-120.30879775 204.65101462 -117.03826474 199.06556838 -113.76875305 193.47952271 C-111.99215151 190.44439897 -110.21499711 187.40959932 -108.4375 184.375 C-108.08662323 183.77594849 -107.73574646 183.17689697 -107.37423706 182.55969238 C-102.21433397 173.75261161 -97.02308978 164.96468995 -91.8125 156.1875 C-85.69889518 145.88855317 -79.64297552 135.55754751 -73.6171875 125.20703125 C-67.85765662 115.31607737 -62.06030328 105.44723642 -56.26901245 95.57485962 C-53.74475954 91.27129748 -51.22334218 86.96608276 -48.703125 82.66015625 C-47.28144348 80.23165751 -45.8595556 77.80327971 -44.4375 75.375 C-43.91055038 74.47515381 -43.91055038 74.47515381 -43.37295532 73.55712891 C-37.58736267 63.68025185 -31.75126581 53.83420445 -25.90283203 43.99438477 C-20.50826013 34.8993541 -15.21157334 25.75080735 -9.95849609 16.57348633 C-6.7471457 10.97399063 -3.46397496 5.44711693 0 0 Z " fill="#128DFF" transform="translate(2313,1267)"/>
</svg>
